:version 1.10
:name ASF
:units
  mass 1
  length 1
  angle deg
:documentation
  ASF file generated by Kaydara
:root
  axis xyz
  order  tx ty tz rx ry rz
  position 0 0 0
  orientation 0 0 0
:bonedata
  begin
    id 1
    name RightUpLegDummy
    direction -0.718183 -0.695806 0.00816078
    length 4.904
    axis 0 0 0 xyz
  end
  begin
    id 2
    name RightUpLeg
    direction -0.00334265 -0.999142 0.0412837
    length 17.4976
    axis -0.59612 0.00940841 -0.192072 xyz
    dof rx ry rz
  end
  begin
    id 3
    name RightLeg
    direction 0.000365068 -0.988824 -0.149089
    length 16.5821
    axis 6.58657 0.0604092 -0.318554 xyz
    dof rx ry rz
  end
  begin
    id 4
    name RightFoot
    direction 0.00079069 -0.460991 0.887405
    length 3.77069
    axis 0.000105557 -0.120464 -0.188919 xyz
    dof rx ry rz
  end
  begin
    id 5
    name RightToes
    direction 0.00124768 -0.014065 0.9999
    length 3.85082
    axis 0.00053932 0.542178 -0.142707 xyz
    dof rx ry rz
  end
  begin
    id 6
    name SpineDummy
    direction 8.3039e-015 1 4.58682e-016
    length 4.6813
    axis 0 0 0 xyz
  end
  begin
    id 7
    name Spine
    direction 4.12799e-006 0.999988 0.00494944
    length 10.1015
    axis -0.00149944 0.000129667 -0.000235877 xyz
    dof rx ry rz
  end
  begin
    id 8
    name Spine1
    direction 0 0 0
    length 0
    axis -0.00160567 0.000129431 -0.000308381 xyz
    dof rx ry rz
  end
  begin
    id 9
    name HEadDummy
    direction 5.38513e-006 0.999999 0.00127044
    length 3.43865
    axis -0.00160567 0.000129431 -0.000308381 xyz
  end
  begin
    id 10
    name HEad
    direction -0.0226495 0.980942 0.192974
    length 5.12695
    axis -0.00160642 -0.114462 -0.000307946 xyz
    dof rx ry rz
  end
  begin
    id 11
    name LeftShoulder1Dummy
    direction 0.99889 -0.0402564 -0.0244456
    length 3.5433
    axis -0.00160567 0.000129431 -0.000308381 xyz
  end
  begin
    id 12
    name LeftShoulder1
    direction 0.999464 -0.00142945 0.0326977
    length 4.05031
    axis 0.393425 -0.0796525 -0.0507861 xyz
    dof rx ry rz
  end
  begin
    id 13
    name LeftArm
    direction 0.998564 -0.000899612 -0.053557
    length 10.3537
    axis -22.9476 0.126974 0.960871 xyz
    dof rx ry rz
  end
  begin
    id 14
    name LeftForeArm
    direction 0.998903 0.00865904 0.0460121
    length 8.70632
    axis -9.91856 -0.0656997 -0.178106 xyz
    dof rx ry rz
  end
  begin
    id 15
    name LeftHand
    direction 0.992938 -0.0411687 0.11126
    length 5.32135
    axis -0.00981066 -0.00340928 0.18486 xyz
    dof rx ry rz
  end
  begin
    id 16
    name RightShoulderDummy
    direction -0.998891 -0.0402456 -0.0244411
    length 3.5433
    axis -0.00160567 0.000129431 -0.000308381 xyz
  end
  begin
    id 17
    name RightShoulder
    direction -0.999353 -0.00388479 0.0357579
    length 4.05031
    axis 1.48787 0.256014 0.157284 xyz
    dof rx ry rz
  end
  begin
    id 18
    name RightArm
    direction -0.998583 -0.000660455 -0.0532032
    length 10.3947
    axis -22.4211 -0.109147 -0.943573 xyz
    dof rx ry rz
  end
  begin
    id 19
    name RightForeArm
    direction -0.998898 0.00868588 0.0461311
    length 8.68355
    axis -9.92343 0.0658342 0.178556 xyz
    dof rx ry rz
  end
  begin
    id 20
    name RightHand
    direction -0.992843 -0.0414545 0.112004
    length 5.28593
    axis -0.00982288 0.00332907 -0.185539 xyz
    dof rx ry rz
  end
  begin
    id 21
    name LeftUpLegDummy
    direction 0.718183 -0.695806 0.00816078
    length 4.904
    axis 0 0 0 xyz
  end
  begin
    id 22
    name LeftUpLeg
    direction 0.00445374 -0.999139 0.0412407
    length 17.4976
    axis -0.593655 -0.0138231 0.255969 xyz
    dof rx ry rz
  end
  begin
    id 23
    name LeftLeg
    direction -0.00154847 -0.988829 -0.149046
    length 16.5821
    axis 6.5841 -0.0555156 0.250722 xyz
    dof rx ry rz
  end
  begin
    id 24
    name LeftFoot
    direction -0.00417678 -0.460985 0.887398
    length 3.77069
    axis 5.53694e-005 4.88088e-005 -0.000136194 xyz
    dof rx ry rz
  end
  begin
    id 25
    name LeftToes
    direction 0.00818061 -0.00485256 0.999955
    length 3.85048
    axis 6.41179e-005 4.88477e-005 -0.000136145 xyz
    dof rx ry rz
  end
:hierarchy
  begin
    root RightUpLegDummy SpineDummy LeftUpLegDummy
    RightUpLegDummy RightUpLeg
    RightUpLeg RightLeg
    RightLeg RightFoot
    RightFoot RightToes
    SpineDummy Spine
    Spine Spine1
    Spine1 HEadDummy LeftShoulder1Dummy RightShoulderDummy
    HEadDummy HEad
    LeftShoulder1Dummy LeftShoulder1
    LeftShoulder1 LeftArm
    LeftArm LeftForeArm
    LeftForeArm LeftHand
    RightShoulderDummy RightShoulder
    RightShoulder RightArm
    RightArm RightForeArm
    RightForeArm RightHand
    LeftUpLegDummy LeftUpLeg
    LeftUpLeg LeftLeg
    LeftLeg LeftFoot
    LeftFoot LeftToes
  end

:SAMPLES-PER-SECOND 30
:FULLY-SPECIFIED
:DEGREES
62
root  0.509103 40.3015 0.200364 -171.746 -85.6336 170.999
RightUpLeg  4.25504 -6.26755 -9.55753
RightLeg  -4.39365 -9.71368 -0.0472833
RightFoot  -0.672641 -0.767792 8.14058
RightToes  6.35927e-011 1.30204e-014 -6.03759e-014
Spine  -1.01289 -0.0830462 -0.970907
Spine1  1.98259 -0.151944 0.406231
HEad  -0.5287 3.30742 -1.03373
LeftShoulder1  0.0166047 3.27663 1.3119
LeftArm  -21.7353 -3.99615 0.750544
LeftForeArm  19.2279 5.78588 -5.79257
LeftHand  -0.0216266 2.95105 0.00743046
RightShoulder  -0.0146682 -3.72543 -2.1864
RightArm  -26.2153 21.3285 1.9344
RightForeArm  19.6737 -7.35903 8.91162
RightHand  -0.0721314 -2.7524 -2.0595
LeftUpLeg  7.01574 11.1449 13.9609
LeftLeg  -2.90365 22.3453 -1.96489
LeftFoot  -1.10104 0.723359 -8.01788
LeftToes  1.82556e-010 9.56953e-011 7.56925e-011
63
root  0.523697 40.3021 0.199728 -172.311 -85.6222 171.739
RightUpLeg  4.14981 -6.1298 -9.43243
RightLeg  -4.64587 -9.80327 -0.0370987
RightFoot  -0.605913 -0.747218 7.89821
RightToes  6.35927e-011 1.30204e-014 -6.03759e-014
Spine  -1.4339 -0.0637809 -0.998461
Spine1  2.19032 -0.159801 0.52059
HEad  0.159864 3.22657 -1.17561
LeftShoulder1  0.0253528 3.15572 1.32555
LeftArm  -21.5907 -3.90389 0.550431
LeftForeArm  18.5811 5.62635 -5.88506
LeftHand  -0.0215699 2.96555 0.139552
RightShoulder  -0.0120116 -3.73119 -2.27499
RightArm  -26.4571 21.3744 1.97476
RightForeArm  19.7041 -7.33882 8.78709
RightHand  -0.0694997 -2.66008 -1.97304
LeftUpLeg  6.76176 11.1866 13.9911
LeftLeg  -2.80781 22.4153 -1.95776
LeftFoot  -1.10123 0.728531 -8.05272
LeftToes  1.82556e-010 9.56953e-011 7.56925e-011
64
root  0.544524 40.3014 0.197873 -172.719 -85.6266 172.081
RightUpLeg  4.21423 -6.15392 -9.42344
RightLeg  -4.67822 -9.80212 0.00410665
RightFoot  -0.523422 -0.76527 8.03092
RightToes  6.35927e-011 1.30204e-014 -6.03759e-014
Spine  -1.63413 -0.149822 -1.06618
Spine1  2.76566 -0.275272 0.664963
HEad  0.0687863 3.52443 -1.19502
LeftShoulder1  0.00543952 3.42854 1.37401
LeftArm  -21.5769 -3.92727 0.330193
LeftForeArm  18.3289 5.4904 -5.91964
LeftHand  -0.0217626 3.01238 0.251819
RightShoulder  -0.0102155 -3.75419 -2.49546
RightArm  -26.9334 21.5513 2.17811
RightForeArm  19.8614 -7.29879 8.54385
RightHand  -0.0645484 -2.2606 -1.90406
LeftUpLeg  6.86535 11.2265 14.061
LeftLeg  -2.93571 22.3265 -2.03279
LeftFoot  -1.01324 0.724977 -7.97418
LeftToes  1.82556e-010 9.56953e-011 7.56925e-011
65
root  0.58494 40.3006 0.196922 -172.271 -85.6378 171.456
RightUpLeg  4.24575 -6.24183 -9.51231
RightLeg  -4.47114 -9.70981 -0.0156176
RightFoot  -0.555856 -0.777596 8.1834
RightToes  6.35927e-011 1.30204e-014 -6.03759e-014
Spine  -1.568 -0.219622 -1.12827
Spine1  3.30693 -0.331743 0.603771
HEad  -0.110633 3.65868 -1.03676
LeftShoulder1  -0.00705091 3.6031 1.55925
LeftArm  -21.5447 -3.9403 0.157399
LeftForeArm  18.4911 5.42237 -5.93667
LeftHand  -0.0208539 2.96688 0.443704
RightShoulder  -0.00896448 -3.73976 -2.44048
RightArm  -26.9863 21.6361 2.04318
RightForeArm  19.8146 -7.29875 8.54211
RightHand  -0.0623056 -2.25993 -1.8962
LeftUpLeg  6.9774 11.2065 14.0423
LeftLeg  -2.91205 22.2608 -2.01104
LeftFoot  -1.03554 0.723501 -7.93757
LeftToes  1.82556e-010 9.56953e-011 7.56925e-011
66
root  0.63464 40.3001 0.194983 -172.296 -85.7323 171.303
RightUpLeg  4.34032 -6.2016 -9.45936
RightLeg  -4.4126 -9.7865 -0.083103
RightFoot  -0.612438 -0.744815 7.87451
RightToes  6.35927e-011 1.30204e-014 -6.03759e-014
Spine  -1.24463 -0.30182 -1.24486
Spine1  3.42954 -0.426056 0.634398
HEad  0.0205609 3.48954 -0.983595
LeftShoulder1  -0.00986448 3.64438 1.65851
LeftArm  -21.6512 -3.90597 0.0759215
LeftForeArm  18.7056 5.45946 -5.86441
LeftHand  -0.0196542 2.86685 0.541351
RightShoulder  -0.0081622 -3.70503 -2.37421
RightArm  -27.2303 21.6283 1.98621
RightForeArm  20.3457 -7.27521 8.41304
RightHand  -0.061695 -2.26277 -1.88865
LeftUpLeg  6.92304 11.2177 14.0611
LeftLeg  -2.6318 22.16 -1.87003
LeftFoot  -1.05048 0.726946 -7.98495
LeftToes  1.82556e-010 9.56953e-011 7.56925e-011
67
root  0.679928 40.3001 0.192121 -172.515 -85.7014 171.511
RightUpLeg  4.1422 -6.17051 -9.43817
RightLeg  -4.13165 -9.8696 -0.138013
RightFoot  -0.626555 -0.776751 8.22331
RightToes  6.35927e-011 1.30204e-014 -6.03759e-014
Spine  -1.07484 -0.324632 -1.16566
Spine1  3.34072 -0.397088 0.37827
HEad  0.350742 3.2773 -0.785255
LeftShoulder1  -0.00816002 3.6251 2.01887
LeftArm  -21.6426 -3.80201 -0.147133
LeftForeArm  18.4936 5.4681 -5.85076
LeftHand  -0.0207206 2.98314 0.467957
RightShoulder  -0.00777621 -3.64602 -2.11921
RightArm  -27.3846 21.624 1.86183
RightForeArm  20.3552 -7.26623 8.35765
RightHand  -0.0614342 -2.54239 -1.75389
LeftUpLeg  6.8035 11.2198 14.0632
LeftLeg  -2.47889 22.1577 -1.79694
LeftFoot  -1.09546 0.726933 -7.98355
LeftToes  1.82556e-010 9.56953e-011 7.56925e-011
68
root  0.711231 40.3015 0.190587 -172.206 -85.7038 171.205
RightUpLeg  4.09901 -6.20371 -9.44232
RightLeg  -4.14339 -9.8393 -0.114361
RightFoot  -0.657687 -0.740235 7.85634
RightToes  6.35927e-011 1.30204e-014 -6.03759e-014
Spine  -1.0143 -0.28988 -1.30029
Spine1  3.37808 -0.395708 0.553495
HEad  0.789103 3.15656 -0.888729
LeftShoulder1  0.00157324 3.4803 2.01008
LeftArm  -21.7647 -3.68766 -0.170102
LeftForeArm  18.4517 5.47265 -5.77213
LeftHand  -0.0211369 2.99889 0.284822
RightShoulder  -0.00767357 -3.65691 -2.3295
RightArm  -27.2966 21.4257 1.92128
RightForeArm  20.0593 -7.26655 8.35047
RightHand  -0.0568115 -2.61439 -1.72233
LeftUpLeg  6.73445 11.1945 14.0286
LeftLeg  -2.45504 22.1697 -1.78066
LeftFoot  -1.04795 0.726424 -7.97859
LeftToes  1.82556e-010 9.56953e-011 7.56925e-011
69
root  0.74551 40.3067 0.193753 -172.648 -85.7299 171.523
RightUpLeg  4.20418 -6.2416 -9.47189
RightLeg  -4.18134 -9.77312 -0.0587375
RightFoot  -0.522795 -0.775656 8.13877
RightToes  6.35927e-011 1.30204e-014 -6.03759e-014
Spine  -0.8329 -0.293039 -1.35545
Spine1  3.5877 -0.421255 0.641075
HEad  0.939579 3.17873 -0.89307
LeftShoulder1  -0.00544314 3.58552 2.08139
LeftArm  -21.7471 -3.77228 -0.196458
LeftForeArm  18.382 5.4842 -5.79729
LeftHand  -0.0217991 3.09821 0.196867
RightShoulder  -0.00787493 -3.68153 -2.38904
RightArm  -27.241 21.3671 1.78204
RightForeArm  19.8055 -7.27182 8.37545
RightHand  -0.051071 -2.4721 -1.73227
LeftUpLeg  6.82643 11.2292 14.0815
LeftLeg  -2.50159 22.0801 -1.80714
LeftFoot  -1.0164 0.718333 -7.85757
LeftToes  1.82556e-010 9.56953e-011 7.56925e-011
70
root  0.788891 40.3104 0.191895 -173.15 -85.6922 172.05
RightUpLeg  4.05888 -6.29689 -9.47091
RightLeg  -4.08876 -9.61919 0.00939628
RightFoot  -0.506129 -0.770286 8.06631
RightToes  6.35927e-011 1.30204e-014 -6.03759e-014
Spine  -0.849967 -0.325384 -1.30566
Spine1  3.8353 -0.422098 0.490157
HEad  1.08357 3.3524 -0.803023
LeftShoulder1  -0.0146735 3.73369 2.37224
LeftArm  -21.8441 -3.74711 -0.292876
LeftForeArm  18.5408 5.42921 -5.74133
LeftHand  -0.0211375 3.07673 0.049336
RightShoulder  -0.0083147 -3.6812 -2.29877
RightArm  -27.2683 21.4376 1.6777
RightForeArm  20.0961 -7.27043 8.37557
RightHand  -0.0505545 -2.37175 -1.52231
LeftUpLeg  6.81097 11.3093 14.1633
LeftLeg  -2.62628 22.045 -1.929
LeftFoot  -0.907685 0.722707 -7.93374
LeftToes  1.82556e-010 9.56953e-011 7.56925e-011
